<?xml version="1.0" ?><svg viewBox="0 0 228.84 162.62" xmlns="http://www.w3.org/2000/svg"><g id="a"/><g id="b"><g id="c"><path d="M197.16,82.23c-5-19.99-15.45-38.65-30.23-53.04S131.98,4.34,111.04,1.12s-43.93,1.1-63.78,10.38c-9.79,4.58-19.19,10.27-27.61,17.06-7.8,6.28-14.95,14.12-18.34,23.71-1.52,4.31-2.15,9.71,.56,13.7s7.12,5.08,11.54,4.75c4.91-.37,9.51-2.25,13.97-4.22,5.08-2.24,9.98-4.93,14.6-8.01,2.3-1.53,4.52-3.17,6.69-4.87l-2.51-1.46c-.73,4.12-3.45,7.62-3.63,11.87-.15,3.62,1.65,7.16,5.4,7.99s8.38-.3,11.97-1.65c3.94-1.48,7.51-3.7,10.57-6.58l-2.51-1.46c-.98,3.27-1.97,6.81-1.03,10.21,.75,2.69,2.67,5.15,5.46,5.88,3.11,.81,6.77-.36,9.69-1.41,3.22-1.16,6.25-2.77,9-4.8l-2.05-2.05c-3.22,4.48-.36,10.51,3.82,13.2,5.94,3.81,13.58,.68,19.09-2.38l-2.26-1.3c-.29,5.46,2.95,10.93,7.86,13.34,2.95,1.44,6.16,1.56,9.38,1.39s6.37-.52,9.36,.63c4.27,1.65,7,5.86,8.07,10.14,1.22,4.83,.33,9.73-2.42,13.87-6.91,10.42-20.63,12.71-32.18,12.48-3.73-.08-7.45-.36-11.17-.63-3.21-.23-6.44-.57-9.66-.47-4.61,.14-10.11,1.09-13.26,4.8-4.2,4.93-1.97,11.56,2.86,15.1,6.44,4.72,14.82,2.36,21.73,.15l-1.85-1.85c-1.97,5.48,2.13,11.55,7.47,13.05,6.17,1.73,12.5-2.32,15.52-7.53l-2.74-.36c1.77,5.31,7.15,9.23,12.83,8.79s10.55-4.93,11.46-10.51l-1.45,1.1c18.72,1.57,37.27-6.07,50.97-18.62,14.68-13.47,22.87-32.41,25.09-52.01,1.29-11.34,.56-22.87-1.83-34.02l-.69,1.69,6.31-4.55c.8-.58,1.14-2.09,0-2.59-7.29-3.18-16.06-2.66-22.69,1.9-6.27,4.31-10.12,11.61-10.2,19.21-.02,1.93,2.98,1.93,3,0,.06-6.49,3.33-12.92,8.71-16.62,5.68-3.9,13.33-4.66,19.66-1.9v-2.59l-6.31,4.55c-.57,.41-.84,.99-.69,1.69,4.07,19,3.07,39.44-4.55,57.46-7.19,17.01-20.51,30.97-37.48,38.4-9.19,4.02-19.3,5.84-29.31,5-.59-.05-1.35,.5-1.45,1.1-.68,4.22-4.19,7.92-8.56,8.31s-8.58-2.5-9.94-6.58c-.4-1.2-2.07-1.52-2.74-.36-2.29,3.95-7.03,7.37-11.81,6.23-4.02-.96-7.16-5.38-5.7-9.45,.38-1.07-.8-2.18-1.85-1.85-5.97,1.91-13.46,4.38-19.13,.37-2-1.42-3.74-3.66-3.94-6.18-.18-2.2,.9-4.27,2.62-5.6,3.76-2.89,9.26-2.91,13.75-2.66,7.11,.4,14.22,1.22,21.36,1,11.27-.35,23.52-3.89,30.21-13.65,5.34-7.78,4.71-19.46-2.58-25.9-1.9-1.68-4.2-2.91-6.71-3.4-3.76-.73-7.52,.04-11.3-.11-3.25-.13-6.1-1.34-8.27-3.79-1.95-2.2-2.95-5.07-2.79-8,.06-1.17-1.31-1.82-2.26-1.3-4.35,2.41-10.62,5.39-15.52,2.7-3.18-1.75-5.68-6.09-3.29-9.41,.86-1.19-.86-2.93-2.05-2.05-2.19,1.62-4.56,3.01-7.09,4.04s-5.3,2.01-7.97,2.01c-2.44,0-4.07-1.66-4.7-3.93-.79-2.86,.2-5.88,1.03-8.62,.45-1.48-1.45-2.45-2.51-1.46-2.52,2.37-5.47,4.29-8.68,5.59s-6.76,2.24-10.13,1.98-4.39-3.19-3.93-6.17c.55-3.54,2.81-6.57,3.43-10.11,.27-1.54-1.31-2.4-2.51-1.46-4.21,3.31-8.71,6.26-13.41,8.83s-9.27,4.74-14.19,6.26c-3.69,1.14-8.34,2.05-11.94,.13-4.13-2.22-4.51-7.15-3.52-11.26,2.24-9.32,9.31-17.18,16.42-23.23,7.71-6.55,16.5-11.98,25.53-16.51C64.11,6.35,85.18,1.26,106.09,3.47s39.38,10.78,54.55,24c14.76,12.87,25.7,29.92,31.64,48.55,.74,2.31,1.4,4.65,1.99,7,.47,1.87,3.36,1.08,2.89-.8h0Z"/><path d="M201.97,51.35c.08,.22,.17,.47,.32,.67s.29,.4,.48,.56,.38,.32,.6,.42,.45,.21,.7,.25c.2,.06,.4,.07,.6,.03,.2,0,.39-.07,.56-.18l.3-.23c.19-.19,.31-.41,.39-.66,.1-.47,.12-.93,0-1.4-.18-.66-.69-1.24-1.37-1.42-.45-.11-.91-.07-1.32,.17-.36,.21-.66,.59-.75,1.01-.09,.38-.07,.58,0,.96,0,.03,.01,.06,.02,.08,.05,.15,.1,.3,.18,.43s.17,.25,.28,.35c.3,.29,.69,.46,1.1,.46s.8-.17,1.11-.45c.11-.11,.22-.23,.29-.37,.11-.17,.17-.36,.18-.56,.04-.2,.04-.4-.03-.6-.05-.2-.14-.37-.27-.51-.11-.16-.25-.29-.42-.39l-.36-.15c-.27-.07-.53-.07-.8,0l-.36,.15c-.23,.13-.4,.31-.54,.54,0,.02-.02,.03-.03,.05l.23-.3s-.02,.02-.02,.02l.3-.23h-.02l.36-.14h-.02l.4-.05s-.01,0-.02,0l.4,.05h-.02l.36,.15s-.02,0-.02-.01l.3,.23s-.02-.02-.03-.03l.23,.3s-.03-.05-.04-.07l.15,.36s-.03-.08-.03-.13l.05,.4s0-.08,0-.12l-.05,.4s0-.05,.02-.07l-.15,.36s.01-.03,.02-.04l-.23,.3s.02-.02,.03-.03l-.3,.23s.02-.01,.03-.02l-.36,.15s.03,0,.04,0l-.4,.05s.04,0,.05,0l-.4-.05s.07,.01,.1,.03l-.36-.15s.06,.03,.09,.05l-.3-.23s.05,.05,.08,.08l-.23-.3s.05,.08,.07,.12l-.15-.36c.03,.07,.05,.15,.06,.23l-.05-.4c.02,.12,.01,.24,0,.37l.05-.4s-.01,.08-.02,.11l1.85-1.05c-.11-.02-.22-.05-.32-.09l.36,.15c-.1-.04-.2-.1-.29-.17l.3,.23c-.09-.07-.18-.15-.25-.25l.23,.3c-.07-.09-.12-.18-.16-.28l.15,.36s-.02-.04-.02-.06c-.05-.2-.14-.37-.27-.51-.11-.16-.25-.29-.42-.39-.17-.11-.36-.17-.56-.18-.2-.04-.4-.04-.6,.03l-.36,.15c-.23,.13-.4,.31-.54,.54l-.15,.36c-.07,.27-.07,.53,0,.8h0Z"/><path d="M213.99,29.72c.47,10.91,4.11,21.57,10.51,30.43,1.12,1.55,3.72,.05,2.59-1.51-6.1-8.44-9.66-18.5-10.1-28.91-.08-1.92-3.08-1.93-3,0h0Z"/><path d="M215.94,30.14c-1.03-6.1-6.76-10.79-12.84-11.13-1.47-.08-3.52-.05-4.63,1.07-1.42,1.45-.46,3.56,.27,5.09,1.35,2.81,3.55,5.19,6.12,6.92,2.96,2,6.55,3.09,10.13,2.99,1.93-.05,1.93-3.05,0-3-4.87,.13-9.71-2.36-12.47-6.38-.67-.97-1.26-2.03-1.64-3.15,0-.02-.15-.52-.15-.52-.03,0-.21,.12-.11,.16,.11,.05,.52-.11,.64-.13,.54-.08,1.09-.09,1.64-.07,2.25,.09,4.47,1,6.23,2.39,2.08,1.65,3.49,3.93,3.93,6.55,.13,.8,1.12,1.25,1.85,1.05,.85-.23,1.18-1.04,1.05-1.85h0Z"/><path d="M217.13,32.09c1.62-5.45,4.45-11.61,10.58-12.94l-1.9-1.45c.36,6.71-3.67,13.11-9.83,15.76-.74,.32-.91,1.41-.54,2.05,.45,.77,1.31,.86,2.05,.54,7.05-3.03,11.73-10.7,11.32-18.35-.05-1.01-.91-1.66-1.9-1.45-7.18,1.57-10.76,8.6-12.67,15.04-.55,1.85,2.34,2.65,2.89,.8h0Z"/></g></g></svg>